# xmcd
#
# Track frame offsets: 
#        150
#        56727
#        100140
#        111813
#        181746
#        188449
#        207782
#        215188
#        218260
#        225485
#        235129
#        253223
#        260098
#        287875
#        299951
#        305085
#
# Disc length: 4394 seconds
#
# Revision: 0
# Processed by: cddbd v1.5.2PL0 Copyright (c) Steve Scherf et al.
# Submitted via: ExactAudioCopy v0.95b3
#
DISCID=f9112810
DTITLE=Jimi Hendrix  - The Voodoo Chile Sessions- May 1968  FLAC
DYEAR=1900
DGENRE=
TTITLE0=01 - Voodoo-Chile
TTITLE1=02 - Voodoo-Chile
TTITLE2=03 - Voodoo-Chile
TTITLE3=04 - Voodoo-Chile
TTITLE4=05 - Voodoo-Child-(Slight-Return)
TTITLE5=06 - Voodoo-Child-(Slight-Return)
TTITLE6=07 - Voodoo-Child-(Slight-Return)
TTITLE7=08 - Voodoo-Child-(Slight-Return)
TTITLE8=09 - Voodoo-Child-(Slight-Return)
TTITLE9=10 - Voodoo-Child-(Slight-Return)
TTITLE10=11 - Voodoo-Child-(Slight-Return)
TTITLE11=12 - Voodoo-Child-(Slight-Return)
TTITLE12=13 - Voodoo-Child-(Slight-Return)
TTITLE13=14 - Voodoo-Child-(Slight-Return)
TTITLE14=15 - Voodoo-Child-(Slight-Return)
TTITLE15=16 - Voodoo-Child-(Slight-Return)
EXTD=
EXTT0=
EXTT1=
EXTT2=
EXTT3=
EXTT4=
EXTT5=
EXTT6=
EXTT7=
EXTT8=
EXTT9=
EXTT10=
EXTT11=
EXTT12=
EXTT13=
EXTT14=
EXTT15=
PLAYORDER=
